<?xml version="1.0" encoding="UTF-8"?>
<!DOCTYPE svg PUBLIC "-//W3C//DTD SVG 1.1//EN" "http://www.w3.org/Graphics/SVG/1.1/DTD/svg11.dtd">
<svg xmlns="http://www.w3.org/2000/svg" version="1.1" width="1080px" height="1080px" style="shape-rendering:geometricPrecision; text-rendering:geometricPrecision; image-rendering:optimizeQuality; fill-rule:evenodd; clip-rule:evenodd" xmlns:xlink="http://www.w3.org/1999/xlink">
<g><path style="opacity:0.888" fill="#289897" d="M 738.5,451.5 C 759.897,450.113 780.23,454.113 799.5,463.5C 800.665,471.145 800.831,478.812 800,486.5C 799.667,486.833 799.333,487.167 799,487.5C 780.622,476.624 760.789,472.124 739.5,474C 712.517,480.284 698.184,497.284 696.5,525C 697.241,547.498 707.908,563.165 728.5,572C 736.12,574.579 743.953,576.079 752,576.5C 761.307,575.538 770.474,573.872 779.5,571.5C 779.5,562.833 779.5,554.167 779.5,545.5C 770.827,545.666 762.16,545.5 753.5,545C 752.189,538.223 752.189,531.39 753.5,524.5C 769.833,523.167 786.167,523.167 802.5,524.5C 803.666,544.825 803.833,565.158 803,585.5C 781.711,596.114 759.211,599.948 735.5,597C 700.858,591.024 680.025,570.857 673,536.5C 670.677,489.345 692.51,461.012 738.5,451.5 Z"/></g>
<g><path style="opacity:0.888" fill="#289897" d="M 1016.5,451.5 C 1031.85,449.798 1045.68,453.464 1058,462.5C 1058.5,470.827 1058.67,479.16 1058.5,487.5C 1057.45,487.649 1056.45,487.483 1055.5,487C 1043.43,474.732 1029.09,470.732 1012.5,475C 1004.03,479.119 1001.53,485.619 1005,494.5C 1007.13,497.63 1009.63,500.463 1012.5,503C 1024.17,509.499 1035.5,516.499 1046.5,524C 1065.08,540.989 1068.25,560.489 1056,582.5C 1042.08,597.191 1025.25,601.691 1005.5,596C 997.497,593.831 990.164,590.331 983.5,585.5C 982.167,575.5 982.167,565.5 983.5,555.5C 991.3,566.129 1001.63,572.962 1014.5,576C 1024.06,577.74 1032.22,575.24 1039,568.5C 1042.47,561.47 1041.81,554.803 1037,548.5C 1034.13,545.296 1030.96,542.463 1027.5,540C 1016.9,533.727 1006.56,527.061 996.5,520C 979.897,504.764 977.064,487.264 988,467.5C 995.609,458.617 1005.11,453.283 1016.5,451.5 Z"/></g>
<g><path style="opacity:0.91" fill="#289897" d="M 828.5,453.5 C 835.841,453.334 843.174,453.5 850.5,454C 865.213,472.591 880.047,491.091 895,509.5C 910.023,491.311 924.856,472.978 939.5,454.5C 946.803,453.503 954.137,453.169 961.5,453.5C 961.667,500.835 961.5,548.168 961,595.5C 953.667,596.833 946.333,596.833 939,595.5C 938.667,560.5 938.333,525.5 938,490.5C 925.667,506.167 913.333,521.833 901,537.5C 897,542.833 893,542.833 889,537.5C 876.667,521.833 864.333,506.167 852,490.5C 851.667,525.5 851.333,560.5 851,595.5C 843.667,596.833 836.333,596.833 829,595.5C 828.5,548.168 828.333,500.835 828.5,453.5 Z"/></g>
<g><path style="opacity:0.846" fill="#289897" d="M 216.5,480.5 C 227.603,491.439 237.437,503.439 246,516.5C 246.667,522.167 246.667,527.833 246,533.5C 245.586,533.957 245.086,534.291 244.5,534.5C 239.203,529.245 234.369,523.579 230,517.5C 229.667,558.833 229.333,600.167 229,641.5C 225.942,689.563 200.442,716.729 152.5,723C 147.833,723.667 143.167,723.667 138.5,723C 137.167,718.667 137.167,714.333 138.5,710C 162.151,709.414 182.651,701.247 200,685.5C 211.174,669.341 216.174,651.341 215,631.5C 215.171,581.096 215.671,530.763 216.5,480.5 Z"/></g>
<g><path style="opacity:0.843" fill="#289897" d="M 207.5,481.5 C 208.833,481.5 210.167,481.5 211.5,481.5C 211.667,534.834 211.5,588.168 211,641.5C 208.816,677.356 189.983,698.523 154.5,705C 149.201,706.145 143.868,706.478 138.5,706C 137.533,701.599 137.2,697.099 137.5,692.5C 156.957,692.189 173.457,685.189 187,671.5C 194.381,659.241 197.715,645.907 197,631.5C 197.667,593.5 197.667,555.5 197,517.5C 192.62,522.211 188.62,527.211 185,532.5C 183.89,534.037 182.39,534.703 180.5,534.5C 180.334,528.158 180.5,521.825 181,515.5C 189.666,504.005 198.5,492.671 207.5,481.5 Z"/></g>
<g><path style="opacity:0.936" fill="#289897" d="M 578.5,487.5 C 587.418,487.183 596.251,487.516 605,488.5C 639.351,564.196 672.851,640.196 705.5,716.5C 693.149,716.832 680.815,716.499 668.5,715.5C 658.833,694.167 649.167,672.833 639.5,651.5C 608.5,650.167 577.5,650.167 546.5,651.5C 537.571,673.19 528.237,694.69 518.5,716C 506.153,716.833 493.82,716.666 481.5,715.5C 513.846,639.479 546.179,563.479 578.5,487.5 Z M 590.5,545.5 C 592.335,546.122 593.502,547.456 594,549.5C 604.127,572.082 613.96,594.749 623.5,617.5C 602.823,617.833 582.156,617.5 561.5,616.5C 571.368,592.89 581.035,569.223 590.5,545.5 Z"/></g>
<g><path style="opacity:0.926" fill="#289897" d="M 289.5,488.5 C 353.167,488.5 416.833,488.5 480.5,488.5C 480.5,499.5 480.5,510.5 480.5,521.5C 454.833,521.5 429.167,521.5 403.5,521.5C 403.667,586.168 403.5,650.834 403,715.5C 390.914,716.488 378.747,716.822 366.5,716.5C 366.5,651.5 366.5,586.5 366.5,521.5C 340.831,521.667 315.165,521.5 289.5,521C 288.177,510.167 288.177,499.333 289.5,488.5 Z"/></g>
<g><path style="opacity:0.844" fill="#d94035" d="M 43.5,500.5 C 47.2568,500.071 50.7568,500.737 54,502.5C 54.3333,546.833 54.6667,591.167 55,635.5C 53.1753,671.086 69.0086,694.252 102.5,705C 111.649,707.688 120.982,709.355 130.5,710C 132.045,711.822 132.712,713.989 132.5,716.5C 132.712,719.011 132.045,721.178 130.5,723C 101.401,723.695 76.9012,713.528 57,692.5C 46.7469,677.513 41.4135,660.847 41,642.5C 40.3333,595.833 40.3333,549.167 41,502.5C 41.9947,501.934 42.828,501.267 43.5,500.5 Z"/></g>
<g><path style="opacity:0.844" fill="#d94035" d="M 59.5,501.5 C 63.7675,501.203 67.9341,501.536 72,502.5C 72.3333,546.833 72.6667,591.167 73,635.5C 71.8933,661.489 83.3933,678.989 107.5,688C 115.363,690.306 123.363,691.973 131.5,693C 132.626,696.744 132.793,700.577 132,704.5C 109.108,706.528 89.4412,699.195 73,682.5C 64.1672,670.337 59.5005,656.67 59,641.5C 58.1768,594.792 58.3434,548.126 59.5,501.5 Z"/></g>
</svg>
