<?xml version="1.0" encoding="utf-8"?>
<svg viewBox="0 0 500 500" style="shape-rendering: geometricprecision;" xmlns="http://www.w3.org/2000/svg">
  <rect style="opacity: 0.952; paint-order: fill; fill: rgb(26, 32, 44);" x="4.867" y="4.867" width="490.267" height="490.267" rx="70" ry="70"/>
  <g transform="matrix(0.396936, 0, 0, 0.396936, 30.326881, 24.827149)" style="">
    <path style="opacity:0.955" fill="#289897" d="M 876.5,45.5 C 877.873,45.3433 879.207,45.51 880.5,46C 920.279,91.1013 957.779,137.935 993,186.5C 993.822,188.788 994.489,191.122 995,193.5C 995.667,214.5 995.667,235.5 995,256.5C 994.581,257.672 993.915,258.672 993,259.5C 988,255.833 983.667,251.5 980,246.5C 963.149,224.137 945.815,202.137 928,180.5C 927.667,180.833 927.333,181.167 927,181.5C 926.667,343.5 926.333,505.5 926,667.5C 925.868,719.892 918.535,771.225 904,821.5C 880.12,893.041 834.954,946.541 768.5,982C 702.612,1017.52 632.445,1034.35 558,1032.5C 556.956,1030.29 556.29,1027.95 556,1025.5C 555.333,1013.17 555.333,1000.83 556,988.5C 556.273,986.671 557.107,985.171 558.5,984C 629.725,982.28 696.059,963.614 757.5,928C 815.356,891.853 850.523,840.02 863,772.5C 869.9,736.5 873.567,700.167 874,663.5C 874.333,459.833 874.667,256.167 875,52.5C 875.29,50.0796 875.79,47.7463 876.5,45.5 Z"/>
  </g>
  <g transform="matrix(0.396936, 0, 0, 0.396936, 30.326881, 24.827149)" style="">
    <path style="opacity:0.955" fill="#289897" d="M 846.5,46.5 C 850.759,46.1019 852.592,48.1019 852,52.5C 852.667,259.5 852.667,466.5 852,673.5C 851.414,711.527 846.08,748.861 836,785.5C 818.945,840.879 785.778,883.713 736.5,914C 682.22,945.981 623.554,962.314 560.5,963C 557.898,962.065 556.398,960.232 556,957.5C 555.333,943.833 555.333,930.167 556,916.5C 556.726,913.712 558.56,912.212 561.5,912C 624.927,910.194 681.927,890.527 732.5,853C 763.689,826.149 783.189,792.316 791,751.5C 796.439,724.775 799.439,697.775 800,670.5C 800.833,507.832 800.667,345.166 799.5,182.5C 780.081,204.753 761.581,227.753 744,251.5C 741.258,255.023 738.091,258.023 734.5,260.5C 733.201,259.91 732.368,258.91 732,257.5C 731.333,236.5 731.333,215.5 732,194.5C 733.109,190.281 734.775,186.281 737,182.5C 771.829,135.856 808.329,90.5227 846.5,46.5 Z"/>
  </g>
  <g transform="matrix(0.396936, 0, 0, 0.396936, 30.326881, 24.827149)" style="">
    <path style="opacity:0.953" fill="#d94035" d="M 171.5,127.5 C 181.889,127.13 192.223,127.63 202.5,129C 206.704,130.228 208.87,133.061 209,137.5C 210.317,316.819 210.983,496.153 211,675.5C 211.737,715.798 217.07,755.465 227,794.5C 244.955,857.771 282.789,904.938 340.5,936C 394.62,964.614 452.287,980.281 513.5,983C 517.719,983.173 521.719,984.173 525.5,986C 526.717,987.648 527.55,989.481 528,991.5C 529.772,1003.88 529.439,1016.21 527,1028.5C 525.773,1030.73 523.939,1032.23 521.5,1033C 446.012,1033.46 375.345,1015.13 309.5,978C 228.468,930.214 181.135,859.381 167.5,765.5C 162.516,734.029 159.683,702.362 159,670.5C 158.333,494.833 158.333,319.167 159,143.5C 157.931,133.762 162.098,128.429 171.5,127.5 Z"/>
  </g>
  <g transform="matrix(0.396936, 0, 0, 0.396936, 30.326881, 24.827149)" style="">
    <path style="opacity:0.952" fill="#d94035" d="M 245.5,128.5 C 255.889,128.13 266.223,128.63 276.5,130C 280.704,131.228 282.87,134.061 283,138.5C 284.31,318.823 284.977,499.156 285,679.5C 285.575,719.624 293.241,758.29 308,795.5C 322.801,826.636 344.968,851.136 374.5,869C 405.802,887.77 439.469,900.437 475.5,907C 491.864,909.483 508.197,911.817 524.5,914C 526.487,915.319 527.654,917.152 528,919.5C 530,931.167 530,942.833 528,954.5C 527.496,958.02 525.663,960.52 522.5,962C 460.174,961.917 402.174,945.917 348.5,914C 285.184,873.941 248.684,816.441 239,741.5C 235.745,719.95 233.745,698.284 233,676.5C 232.333,498.5 232.333,320.5 233,142.5C 232.87,133.804 237.037,129.138 245.5,128.5 Z"/>
  </g>
</svg>